<svg width="12" height="24" viewBox="0 0 12 24" fill="none" xmlns="http://www.w3.org/2000/svg">
  <path d="M3 20C2.71667 20 2.47917 19.9042 2.2875 19.7125C2.09583 19.5208 2 19.2833 2 19C2 18.7167 2.09583 18.4792 2.2875 18.2875C2.47917 18.0958 2.71667 18 3 18H5C5.28333 18 5.52083 17.9042 5.7125 17.7125C5.90417 17.5208 6 17.2833 6 17V15C6 14.3667 6.18333 13.7917 6.55 13.275C6.91667 12.7583 7.4 12.3917 8 12.175V11.825C7.4 11.6083 6.91667 11.2417 6.55 10.725C6.18333 10.2083 6 9.63333 6 9V7C6 6.71667 5.90417 6.47917 5.7125 6.2875C5.52083 6.09583 5.28333 6 5 6H3C2.71667 6 2.47917 5.90417 2.2875 5.7125C2.09583 5.52083 2 5.28333 2 5C2 4.71667 2.09583 4.47917 2.2875 4.2875C2.47917 4.09583 2.71667 4 3 4H5C5.83333 4 6.54167 4.29167 7.125 4.875C7.70833 5.45833 8 6.16667 8 7V9C8 9.28333 8.09583 9.52083 8.2875 9.7125C8.47917 9.90417 8.71667 10 9 10C9.28333 10 9.52083 10.0958 9.7125 10.2875C9.90417 10.4792 10 10.7167 10 11V13C10 13.2833 9.90417 13.5208 9.7125 13.7125C9.52083 13.9042 9.28333 14 9 14C8.71667 14 8.47917 14.0958 8.2875 14.2875C8.09583 14.4792 8 14.7167 8 15V17C8 17.8333 7.70833 18.5417 7.125 19.125C6.54167 19.7083 5.83333 20 5 20H3Z" fill="#EA0A23" />
</svg>